<?xml version="1.0" encoding="utf-8"?>
<!-- Generator: Adobe Illustrator 27.0.0, SVG Export Plug-In . SVG Version: 6.00 Build 0)  -->
<svg version="1.1" xmlns="http://www.w3.org/2000/svg" xmlns:xlink="http://www.w3.org/1999/xlink" x="0px" y="0px"
	 viewBox="0 0 360 167.32" style="enable-background:new 0 0 360 167.32;" xml:space="preserve">
<style type="text/css">
	.st0{fill:#264653;}
	.st1{fill:#2B9D8F;}
	.st2{fill:#E9C369;}
	.st3{fill:#F1AA3C;}
	.st4{fill:#F4A262;}
	.st5{fill:#E76F51;}
	.st6{fill:none;}
	.st7{fill:#2BB673;}
	.st8{fill:none;stroke:#000000;stroke-width:3;stroke-miterlimit:10;}
	.st9{stroke:#000000;stroke-width:3;stroke-miterlimit:10;}
	.st10{fill:none;stroke:#000000;stroke-width:3;stroke-linecap:round;stroke-miterlimit:10;}
	.st11{fill:none;stroke:#000000;stroke-width:3;stroke-linecap:round;stroke-linejoin:round;stroke-miterlimit:10;}
	.st12{fill:none;stroke:#000000;stroke-width:2.8305;stroke-miterlimit:10;}
	.st13{fill:#EC008C;}
	.st14{fill:#F4F2F0;}
	.st15{stroke:#000000;stroke-width:6.2609;stroke-miterlimit:10;}
	.st16{fill:none;stroke:#000000;stroke-width:6.2609;stroke-miterlimit:10;}
	.st17{fill:none;stroke:#000000;stroke-width:6.2609;stroke-linecap:round;stroke-miterlimit:10;}
	.st18{fill:none;stroke:#000000;stroke-width:6.2609;stroke-linecap:round;stroke-linejoin:round;stroke-miterlimit:10;}
	.st19{font-family:'DunkinSans';}
	.st20{font-size:21px;}
	.st21{fill:none;stroke:#000000;stroke-width:1.4598;stroke-linecap:round;stroke-linejoin:round;stroke-miterlimit:10;}
	.st22{fill:none;stroke:#000000;stroke-width:0.9299;stroke-linecap:round;stroke-linejoin:round;stroke-miterlimit:10;}
	.st23{fill:none;stroke:#000000;stroke-width:0.9299;stroke-miterlimit:10;}
	.st24{fill:none;stroke:#000000;stroke-width:1.911;stroke-linecap:round;stroke-linejoin:round;stroke-miterlimit:10;}
	.st25{fill:none;stroke:#000000;stroke-width:1.911;stroke-miterlimit:10;}
	.st26{fill:none;stroke:#000000;stroke-width:1.6764;stroke-linecap:round;stroke-linejoin:round;stroke-miterlimit:10;}
	.st27{stroke:#000000;stroke-width:1.6764;stroke-miterlimit:10;}
	.st28{fill:none;stroke:#000000;stroke-width:1.6764;stroke-miterlimit:10;}
	.st29{fill:none;stroke:#000000;stroke-width:1.6764;stroke-linecap:round;stroke-miterlimit:10;}
	.st30{fill:none;stroke:#000000;stroke-width:4;stroke-linecap:round;stroke-linejoin:round;stroke-miterlimit:10;}
	.st31{fill:#E5A626;}
	.st32{fill:none;stroke:#000000;stroke-width:6.021;stroke-linecap:round;stroke-linejoin:round;stroke-miterlimit:10;}
	.st33{fill:#696883;stroke:#FFFFFF;stroke-width:6.021;stroke-linecap:round;stroke-linejoin:round;stroke-miterlimit:10;}
	.st34{fill:none;stroke:#FEBF2F;stroke-width:6.021;stroke-linecap:round;stroke-linejoin:round;stroke-miterlimit:10;}
	.st35{fill:none;stroke:#FEBF2F;stroke-width:7;stroke-linecap:round;stroke-linejoin:round;stroke-miterlimit:10;}
</style>
<g id="Portfolio">
</g>
<g id="Kya_Type">
</g>
<g id="Cover_Page">
	<g id="Porfolio_Cover_Page">
	</g>
	<g id="Porfolio">
		<g id="White_Box">
		</g>
		<g id="Text">
		</g>
	</g>
	<g id="Kya_Jo_Logo">
		<g>
			<circle class="st9" cx="92.7" cy="64.38" r="3.46"/>
			<path class="st8" d="M101.61,63.65c0,0.39-0.02,0.77-0.07,1.15c-0.57,4.78-4.64,8.48-9.57,8.48c-3.82,0-7.12-2.22-8.68-5.43
				c-0.98-2.04-1.29-4.48-0.56-6.97c1.05-3.56,4.16-6.25,7.83-6.77C96.51,53.27,101.61,57.85,101.61,63.65z"/>
			<path class="st8" d="M79.28,111.23c-2.51-2.82-4.24-6.02-5-9.46C75.41,105.34,77.13,108.56,79.28,111.23z"/>
			<path class="st8" d="M87.82,117.86c-3.2-1.36-6.06-3.6-8.42-6.48C81.66,113.88,84.51,116.08,87.82,117.86z"/>
			<path class="st8" d="M69.49,64.09c0.69,4.16,2.7,7.87,5.6,10.68c0.79,0.77,1.03,1.93,0.57,2.92c-1.88,4.07-2.96,8.79-2.96,13.82
				c0,3.62,0.56,7.08,1.58,10.25c1.13,3.57,2.85,6.79,5,9.46c0.04,0.05,0.08,0.1,0.12,0.15c2.26,2.5,5.11,4.7,8.42,6.48
				c5.89,3.19,13.23,5.08,21.18,5.08c19.42,0,31.82-14.46,36-27.7c3.37-10.66,2.93-18.32,1.06-23.73
				c-2.97-8.59-15.42-8.12-17.95,0.61c-0.02,0.08-0.04,0.15-0.07,0.23c-0.57,2-2.7,3.09-4.68,2.46c-3.6-1.16-7.52-1.89-11.65-2.11
				c-0.89-0.06-1.8-0.08-2.71-0.08l-0.05,0c-2.03,0-3.48-2.07-2.66-3.93c0.15-0.35,0.3-0.71,0.43-1.07c0.88-2.36,1.3-4.93,1.18-7.61
				c-0.44-9.51-7.97-17.44-17.45-18.33c-6.32-0.59-12.09,1.85-16,6.06c0,0-0.96,0.87-3.84,4.87 M101.54,64.8
				c-0.57,4.78-4.64,8.48-9.57,8.48c-3.82,0-7.12-2.22-8.68-5.43c-0.98-2.04-1.29-4.48-0.56-6.97c1.05-3.56,4.16-6.25,7.83-6.77
				c5.94-0.84,11.04,3.75,11.04,9.54C101.61,64.04,101.59,64.42,101.54,64.8z"/>
			
				<ellipse transform="matrix(0.3461 -0.9382 0.9382 0.3461 -11.1156 163.1657)" class="st8" cx="111.5" cy="89.56" rx="8.46" ry="14.77"/>
			<path class="st8" d="M99,31.84c0-5.39-2.5-9.75-5.59-9.75c-3.09,0-5.59,4.36-5.59,9.75c0,4.84,2.02,8.86,4.68,9.61
				c0.82,0.23,1.64,0.42,2.43,0.74l7.3,2.95c3.35,0,6.06-2.71,6.06-6.06c0-3.35-2.71-6.07-6.06-6.07l-3.15,0.2L99,31.84z"/>
			<path class="st8" d="M74.86,58.29c0,2.65-2.14,4.95-5.3,6.17c-1.51,0.58-3.26,0.91-5.13,0.91C58.67,65.37,54,62.2,54,58.29
				s4.67-7.08,10.43-7.08S74.86,54.38,74.86,58.29z"/>
			<line class="st10" x1="62.43" y1="58.74" x2="55.14" y2="58.74"/>
			<polyline class="st11" points="85.78,116.66 70.85,131.59 62.16,122.91 			"/>
			<polyline class="st11" points="110.34,124.12 110.34,145.24 98.06,145.24 			"/>
		</g>
		<g>
			<g>
				<path class="st11" d="M222.97,39.39v7.35c0,5.03-4.08,9.11-9.11,9.11h0c-5.03,0-9.11-4.08-9.11-9.11v-7.27"/>
				<path class="st11" d="M176.03,39.39v55.18c0,0,18.42-30.15,20.06-55.18"/>
				<line class="st11" x1="196.09" y1="94.57" x2="185.2" y2="76.9"/>
				<path class="st11" d="M231.89,94.57V48.5c0-5.03,4.08-9.11,9.11-9.11h0c5.03,0,9.11,4.08,9.11,9.11v46.07"/>
				<path class="st11" d="M287.77,85.33V48.37c0-5.03,4.08-9.11,9.11-9.11h0c5.03,0,9.11,4.08,9.11,9.11v36.96
					c0,5.03-4.08,9.11-9.11,9.11h0C291.85,94.44,287.77,90.36,287.77,85.33z"/>
				<path class="st11" d="M278,39.26v46.07c0,5.03-4.08,9.11-9.11,9.11l0,0c-5.03,0-9.11-4.08-9.11-9.11"/>
				<line class="st11" x1="250.11" y1="48.5" x2="231.76" y2="66.85"/>
				<line class="st11" x1="287.77" y1="85.33" x2="305.91" y2="67.19"/>
				<polyline class="st11" points="213.86,94.57 213.86,66.98 213.86,55.84 				"/>
			</g>
			<rect x="176.16" y="109.49" class="st6" width="127.36" height="18.57"/>
			<text transform="matrix(1 0 0 1 199.0867 125.8989)" class="st19 st20">design</text>
		</g>
	</g>
</g>
<g id="Images_Portfolio">
	<g id="Thrive">
	</g>
	<g id="Get_Guts">
	</g>
	<g id="Elements">
	</g>
</g>
</svg>
