<?xml version="1.0" encoding="utf-8"?>
<!-- Generator: Adobe Illustrator 27.0.0, SVG Export Plug-In . SVG Version: 6.00 Build 0)  -->
<svg version="1.1" xmlns="http://www.w3.org/2000/svg" xmlns:xlink="http://www.w3.org/1999/xlink" x="0px" y="0px"
	 viewBox="0 0 360 360" style="enable-background:new 0 0 360 360;" xml:space="preserve">
<style type="text/css">
	.st0{fill:#264653;}
	.st1{fill:#2B9D8F;}
	.st2{fill:#E9C369;}
	.st3{fill:#F1AA3C;}
	.st4{fill:#F4A262;}
	.st5{fill:#E76F51;}
	.st6{fill:none;}
	.st7{fill:#2BB673;}
	.st8{fill:none;stroke:#000000;stroke-width:3;stroke-miterlimit:10;}
	.st9{stroke:#000000;stroke-width:3;stroke-miterlimit:10;}
	.st10{fill:none;stroke:#000000;stroke-width:3;stroke-linecap:round;stroke-miterlimit:10;}
	.st11{fill:none;stroke:#000000;stroke-width:3;stroke-linecap:round;stroke-linejoin:round;stroke-miterlimit:10;}
	.st12{fill:none;stroke:#000000;stroke-width:2.8305;stroke-miterlimit:10;}
	.st13{fill:#EC008C;}
	.st14{fill:#F4F2F0;}
	.st15{stroke:#000000;stroke-width:6.2609;stroke-miterlimit:10;}
	.st16{fill:none;stroke:#000000;stroke-width:6.2609;stroke-miterlimit:10;}
	.st17{fill:none;stroke:#000000;stroke-width:6.2609;stroke-linecap:round;stroke-miterlimit:10;}
	.st18{fill:none;stroke:#000000;stroke-width:6.2609;stroke-linecap:round;stroke-linejoin:round;stroke-miterlimit:10;}
	.st19{font-family:'DunkinSans';}
	.st20{font-size:21px;}
	.st21{fill:none;stroke:#000000;stroke-width:1.4598;stroke-linecap:round;stroke-linejoin:round;stroke-miterlimit:10;}
	.st22{fill:none;stroke:#000000;stroke-width:0.9299;stroke-linecap:round;stroke-linejoin:round;stroke-miterlimit:10;}
	.st23{fill:none;stroke:#000000;stroke-width:0.9299;stroke-miterlimit:10;}
	.st24{fill:none;stroke:#000000;stroke-width:1.911;stroke-linecap:round;stroke-linejoin:round;stroke-miterlimit:10;}
	.st25{fill:none;stroke:#000000;stroke-width:1.911;stroke-miterlimit:10;}
	.st26{fill:none;stroke:#000000;stroke-width:1.6764;stroke-linecap:round;stroke-linejoin:round;stroke-miterlimit:10;}
	.st27{stroke:#000000;stroke-width:1.6764;stroke-miterlimit:10;}
	.st28{fill:none;stroke:#000000;stroke-width:1.6764;stroke-miterlimit:10;}
	.st29{fill:none;stroke:#000000;stroke-width:1.6764;stroke-linecap:round;stroke-miterlimit:10;}
	.st30{fill:none;stroke:#000000;stroke-width:4;stroke-linecap:round;stroke-linejoin:round;stroke-miterlimit:10;}
	.st31{fill:#E5A626;}
	.st32{fill:none;stroke:#000000;stroke-width:6.021;stroke-linecap:round;stroke-linejoin:round;stroke-miterlimit:10;}
	.st33{fill:#696883;stroke:#FFFFFF;stroke-width:6.021;stroke-linecap:round;stroke-linejoin:round;stroke-miterlimit:10;}
	.st34{fill:none;stroke:#FEBF2F;stroke-width:6.021;stroke-linecap:round;stroke-linejoin:round;stroke-miterlimit:10;}
	.st35{fill:none;stroke:#FEBF2F;stroke-width:7;stroke-linecap:round;stroke-linejoin:round;stroke-miterlimit:10;}
</style>
<g id="Portfolio">
</g>
<g id="Kya_Type">
</g>
<g id="Cover_Page">
	<g id="Porfolio_Cover_Page">
	</g>
	<g id="Porfolio">
		<g id="White_Box">
		</g>
		<g id="Text">
		</g>
	</g>
	<g id="Kya_Jo_Logo">
		<path class="st11" d="M180,327.06L180,327.06c-54.65,0-98.95-44.3-98.95-98.95v-96.21c0-54.65,44.3-98.95,98.95-98.95h0
			c54.65,0,98.95,44.3,98.95,98.95v96.21C278.95,282.76,234.65,327.06,180,327.06z"/>
		<g>
			<g>
				<circle class="st9" cx="171.88" cy="108.85" r="3.46"/>
				<path class="st8" d="M180.78,108.12c0,0.39-0.02,0.77-0.07,1.15c-0.57,4.78-4.64,8.48-9.57,8.48c-3.82,0-7.12-2.22-8.68-5.43
					c-0.98-2.04-1.29-4.48-0.56-6.97c1.05-3.56,4.16-6.25,7.83-6.77C175.68,97.74,180.78,102.32,180.78,108.12z"/>
				<path class="st8" d="M158.45,155.7c-2.51-2.82-4.24-6.02-5-9.46C154.58,149.81,156.3,153.03,158.45,155.7z"/>
				<path class="st8" d="M166.99,162.33c-3.2-1.36-6.06-3.6-8.42-6.48C160.83,158.35,163.68,160.55,166.99,162.33z"/>
				<path class="st8" d="M148.66,108.56c0.69,4.16,2.7,7.87,5.6,10.68c0.79,0.77,1.03,1.93,0.57,2.92
					c-1.88,4.07-2.96,8.79-2.96,13.82c0,3.62,0.56,7.08,1.58,10.25c1.13,3.57,2.85,6.79,5,9.46c0.04,0.05,0.08,0.1,0.12,0.15
					c2.26,2.5,5.11,4.7,8.42,6.48c5.89,3.19,13.23,5.08,21.18,5.08c19.42,0,31.82-14.46,36-27.7c3.37-10.66,2.93-18.32,1.06-23.73
					c-2.97-8.59-15.42-8.12-17.95,0.61c-0.02,0.08-0.04,0.15-0.07,0.23c-0.57,2-2.7,3.09-4.68,2.46c-3.6-1.16-7.52-1.89-11.65-2.11
					c-0.89-0.06-1.8-0.08-2.71-0.08l-0.05,0c-2.03,0-3.48-2.07-2.66-3.93c0.15-0.35,0.3-0.71,0.43-1.07
					c0.88-2.36,1.3-4.93,1.18-7.61c-0.44-9.51-7.97-17.44-17.45-18.33c-6.32-0.59-12.09,1.85-16,6.06c0,0-0.96,0.87-3.84,4.87
					 M180.71,109.27c-0.57,4.78-4.64,8.48-9.57,8.48c-3.82,0-7.12-2.22-8.68-5.43c-0.98-2.04-1.29-4.48-0.56-6.97
					c1.05-3.56,4.16-6.25,7.83-6.77c5.94-0.84,11.04,3.75,11.04,9.54C180.78,108.51,180.76,108.89,180.71,109.27z"/>
				
					<ellipse transform="matrix(0.3461 -0.9382 0.9382 0.3461 -1.0677 266.524)" class="st8" cx="190.67" cy="134.03" rx="8.46" ry="14.77"/>
				<path class="st8" d="M178.17,76.31c0-5.39-2.5-9.75-5.59-9.75c-3.09,0-5.59,4.36-5.59,9.75c0,4.84,2.02,8.86,4.68,9.61
					c0.82,0.23,1.64,0.42,2.43,0.74l7.3,2.95c3.35,0,6.06-2.71,6.06-6.06c0-3.35-2.71-6.07-6.06-6.07l-3.15,0.2L178.17,76.31z"/>
				<path class="st8" d="M154.03,102.76c0,2.65-2.14,4.95-5.3,6.17c-1.51,0.58-3.26,0.91-5.13,0.91c-5.76,0-10.43-3.17-10.43-7.08
					c0-3.91,4.67-7.08,10.43-7.08C149.36,95.68,154.03,98.85,154.03,102.76z"/>
				<line class="st10" x1="141.6" y1="103.21" x2="134.31" y2="103.21"/>
				<polyline class="st11" points="164.95,161.13 150.02,176.06 141.34,167.38 				"/>
				<polyline class="st11" points="189.51,168.59 189.51,189.71 177.23,189.71 				"/>
			</g>
			<g>
				<path class="st11" d="M161.96,204.76v7.35c0,5.03-4.08,9.11-9.11,9.11h0c-5.03,0-9.11-4.08-9.11-9.11v-7.27"/>
				<path class="st11" d="M115.02,204.76v55.18c0,0,18.42-30.15,20.06-55.18"/>
				<line class="st11" x1="135.08" y1="259.94" x2="124.19" y2="242.28"/>
				<path class="st11" d="M170.88,259.94v-46.07c0-5.03,4.08-9.11,9.11-9.11h0c5.03,0,9.11,4.08,9.11,9.11v46.07"/>
				<path class="st11" d="M226.76,250.7v-36.96c0-5.03,4.08-9.11,9.11-9.11h0c5.03,0,9.11,4.08,9.11,9.11v36.96
					c0,5.03-4.08,9.11-9.11,9.11h0C230.84,259.82,226.76,255.74,226.76,250.7z"/>
				<path class="st11" d="M216.99,204.64v46.07c0,5.03-4.08,9.11-9.11,9.11h0c-5.03,0-9.11-4.08-9.11-9.11"/>
				<line class="st11" x1="189.1" y1="213.87" x2="170.75" y2="232.23"/>
				<line class="st11" x1="226.76" y1="250.7" x2="244.9" y2="232.57"/>
				<polyline class="st11" points="152.84,259.94 152.84,232.35 152.84,221.22 				"/>
			</g>
			<rect x="115.15" y="274.87" class="st6" width="127.36" height="18.57"/>
			<text transform="matrix(1 0 0 1 138.0755 291.2769)" class="st19 st20">design</text>
		</g>
	</g>
</g>
<g id="Images_Portfolio">
	<g id="Thrive">
	</g>
	<g id="Get_Guts">
	</g>
	<g id="Elements">
	</g>
</g>
</svg>
