<?xml version="1.0" encoding="utf-8"?>
<!-- Generator: Adobe Illustrator 27.2.0, SVG Export Plug-In . SVG Version: 6.00 Build 0)  -->
<svg version="1.1" xmlns="http://www.w3.org/2000/svg" xmlns:xlink="http://www.w3.org/1999/xlink" x="0px" y="0px"
	 viewBox="0 0 360 169.43" style="enable-background:new 0 0 360 169.43;" xml:space="preserve">
<style type="text/css">
	.st0{stroke:#000000;stroke-width:3;stroke-miterlimit:10;}
	.st1{fill:none;stroke:#000000;stroke-width:3;stroke-miterlimit:10;}
	.st2{fill:none;stroke:#000000;stroke-width:3;stroke-linecap:round;stroke-miterlimit:10;}
	.st3{fill:none;stroke:#000000;stroke-width:3;stroke-linecap:round;stroke-linejoin:round;stroke-miterlimit:10;}
	.st4{fill:#F3F1EF;}
	.st5{fill:#E8C167;}
	.st6{fill:#F3A163;}
	.st7{fill:#2B9C8E;}
	.st8{fill:#264653;}
	.st9{fill:#E66F50;}
	.st10{fill:#FFFFFF;stroke:#000000;stroke-width:3;stroke-linecap:round;stroke-linejoin:round;stroke-miterlimit:10;}
</style>
<g id="Portfolio">
</g>
<g id="Kya_Type">
</g>
<g id="Cover_Page">
	<g id="Porfolio_Cover_Page">
	</g>
	<g id="Porfolio">
		<g id="White_Box">
		</g>
		<g id="Text">
		</g>
	</g>
	<g id="Kya_Jo_Logo">
		<g>
			<g>
				<circle class="st0" cx="89.28" cy="65.43" r="3.46"/>
				<path class="st1" d="M98.18,64.7c0,0.39-0.02,0.77-0.07,1.15c-0.57,4.78-4.64,8.48-9.57,8.48c-3.82,0-7.12-2.22-8.68-5.43
					c-0.98-2.04-1.29-4.48-0.56-6.97c1.05-3.56,4.16-6.25,7.83-6.77C93.08,54.32,98.18,58.91,98.18,64.7z"/>
				<path class="st1" d="M75.85,112.28c-2.51-2.82-4.24-6.02-5-9.46C71.98,106.39,73.7,109.61,75.85,112.28z"/>
				<path class="st1" d="M84.39,118.91c-3.2-1.36-6.06-3.6-8.42-6.48C78.23,114.93,81.08,117.13,84.39,118.91z"/>
				<path class="st1" d="M66.06,65.14c0.69,4.16,2.7,7.87,5.6,10.68c0.79,0.77,1.03,1.93,0.57,2.92c-1.88,4.07-2.96,8.79-2.96,13.82
					c0,3.62,0.56,7.08,1.58,10.25c1.13,3.57,2.85,6.79,5,9.46c0.04,0.05,0.08,0.1,0.12,0.15c2.26,2.5,5.11,4.7,8.42,6.48
					c5.89,3.19,13.23,5.08,21.18,5.08c19.42,0,31.82-14.46,36-27.7c3.37-10.66,2.93-18.32,1.06-23.73
					c-2.97-8.59-15.42-8.12-17.95,0.61c-0.02,0.08-0.04,0.15-0.07,0.23c-0.57,2-2.7,3.09-4.68,2.46c-3.6-1.16-7.52-1.89-11.65-2.11
					c-0.89-0.06-1.8-0.08-2.71-0.08l-0.05,0c-2.03,0-3.48-2.07-2.66-3.93c0.15-0.35,0.3-0.71,0.43-1.07
					c0.88-2.36,1.3-4.93,1.18-7.61c-0.44-9.51-7.97-17.44-17.45-18.33c-6.32-0.59-12.09,1.85-16,6.06c0,0-0.96,0.87-3.84,4.87
					 M98.11,65.85c-0.57,4.78-4.64,8.48-9.57,8.48c-3.82,0-7.12-2.22-8.68-5.43c-0.98-2.04-1.29-4.48-0.56-6.97
					c1.05-3.56,4.16-6.25,7.83-6.77c5.94-0.84,11.04,3.75,11.04,9.54C98.18,65.09,98.16,65.47,98.11,65.85z"/>
				
					<ellipse transform="matrix(0.3461 -0.9382 0.9382 0.3461 -14.3448 160.6392)" class="st1" cx="108.07" cy="90.61" rx="8.46" ry="14.77"/>
				<path class="st1" d="M95.57,32.89c0-5.39-2.5-9.75-5.59-9.75c-3.09,0-5.59,4.36-5.59,9.75c0,4.84,2.02,8.86,4.68,9.61
					c0.82,0.23,1.64,0.42,2.43,0.74l7.3,2.95c3.35,0,6.06-2.71,6.06-6.06c0-3.35-2.71-6.07-6.06-6.07l-3.15,0.2L95.57,32.89z"/>
				<path class="st1" d="M71.43,59.35c0,2.65-2.14,4.95-5.3,6.17c-1.51,0.58-3.26,0.91-5.13,0.91c-5.76,0-10.43-3.17-10.43-7.08
					s4.67-7.08,10.43-7.08S71.43,55.44,71.43,59.35z"/>
				<line class="st2" x1="59" y1="59.79" x2="51.71" y2="59.79"/>
				<polyline class="st3" points="82.35,117.71 67.42,132.64 58.74,123.96 				"/>
				<polyline class="st3" points="106.91,125.18 106.91,146.29 94.63,146.29 				"/>
			</g>
			<g>
				<g>
					<path class="st3" d="M226.39,43.45v7.35c0,5.03-4.08,9.11-9.11,9.11h0c-5.03,0-9.11-4.08-9.11-9.11v-7.27"/>
					<path class="st3" d="M179.46,43.45v55.18c0,0,18.42-30.15,20.06-55.18"/>
					<line class="st3" x1="199.52" y1="98.63" x2="188.63" y2="80.96"/>
					<path class="st3" d="M235.32,98.63V52.56c0-5.03,4.08-9.11,9.11-9.11h0c5.03,0,9.11,4.08,9.11,9.11v46.07"/>
					<path class="st3" d="M291.2,89.39V52.43c0-5.03,4.08-9.11,9.11-9.11h0c5.03,0,9.11,4.08,9.11,9.11v36.96
						c0,5.03-4.08,9.11-9.11,9.11h0C295.28,98.5,291.2,94.42,291.2,89.39z"/>
					<path class="st3" d="M281.43,43.32v46.07c0,5.03-4.08,9.11-9.11,9.11l0,0c-5.03,0-9.11-4.08-9.11-9.11"/>
					<line class="st3" x1="253.54" y1="52.56" x2="235.19" y2="70.91"/>
					<line class="st3" x1="291.2" y1="89.39" x2="309.34" y2="71.25"/>
					<polyline class="st3" points="217.28,98.63 217.28,71.04 217.28,59.9 					"/>
				</g>
				<g>
					<path d="M216.87,122.78c0,1.98-0.7,3.67-2.1,5.08c-1.4,1.4-3.09,2.1-5.08,2.1s-3.67-0.7-5.08-2.1c-1.4-1.4-2.1-3.09-2.1-5.08
						s0.7-3.67,2.1-5.08c1.4-1.4,3.09-2.1,5.08-2.1c1.12,0,2.15,0.22,3.08,0.67v-0.67c0-0.57,0.2-1.05,0.6-1.45
						c0.4-0.4,0.88-0.6,1.45-0.6s1.05,0.2,1.45,0.6c0.4,0.4,0.6,0.88,0.6,1.45V122.78z M211.87,124.96c0.6-0.6,0.9-1.33,0.9-2.17
						s-0.3-1.57-0.9-2.17s-1.33-0.9-2.17-0.9s-1.57,0.3-2.17,0.9s-0.9,1.33-0.9,2.17s0.3,1.57,0.9,2.17s1.33,0.9,2.17,0.9
						S211.26,125.56,211.87,124.96z"/>
					<path d="M223.81,124.83c0.03,0.04,0.07,0.08,0.11,0.12c0.6,0.6,1.33,0.9,2.17,0.9h3.08c0.57,0,1.05,0.2,1.45,0.6
						c0.4,0.4,0.6,0.88,0.6,1.45c0,0.57-0.2,1.05-0.6,1.45c-0.4,0.4-0.88,0.6-1.45,0.6h-3.08c-1.98,0-3.67-0.7-5.08-2.1
						c-1.4-1.4-2.1-3.09-2.1-5.08s0.7-3.67,2.1-5.08c1.4-1.4,3.09-2.1,5.08-2.1s3.67,0.7,5.08,2.1c1.4,1.4,2.1,3.09,2.1,5.08
						c0,0.57-0.2,1.05-0.6,1.45c-0.4,0.4-0.88,0.6-1.45,0.6H223.81z M228.39,120.73c-0.03-0.04-0.07-0.08-0.11-0.12
						c-0.6-0.6-1.33-0.9-2.17-0.9s-1.57,0.3-2.17,0.9c-0.04,0.04-0.08,0.08-0.11,0.12H228.39z"/>
					<path d="M239.94,125.86h0.51c0.14,0,0.26-0.05,0.36-0.15c0.1-0.1,0.15-0.22,0.15-0.36s-0.05-0.26-0.15-0.36
						c-0.1-0.1-0.22-0.15-0.36-0.15h-0.51c-1.27,0-2.36-0.45-3.26-1.35s-1.35-1.99-1.35-3.26s0.45-2.36,1.35-3.26
						s1.99-1.35,3.26-1.35h1.54c1.02,0,1.92,0.29,2.71,0.87c0.05,0.04,0.09,0.07,0.13,0.1c0.14,0.12,0.28,0.24,0.42,0.38
						c-0.02,0.01-0.04,0.01-0.05,0.01c0.25,0.35,0.38,0.75,0.38,1.2c0,0.57-0.2,1.05-0.6,1.45c-0.4,0.4-0.88,0.6-1.45,0.6
						c-0.34,0-0.68-0.08-1.03-0.26c-0.34-0.17-0.85-0.26-1.54-0.26h-0.51c-0.14,0-0.27,0.05-0.36,0.15c-0.1,0.1-0.15,0.22-0.15,0.36
						s0.05,0.26,0.15,0.36c0.1,0.1,0.22,0.15,0.36,0.15h0.51c1.27,0,2.36,0.45,3.26,1.35s1.35,1.99,1.35,3.26s-0.45,2.36-1.35,3.26
						c-0.9,0.9-1.99,1.35-3.26,1.35h-1.54c-1.02,0-1.92-0.29-2.71-0.87c-0.05-0.03-0.09-0.07-0.13-0.1
						c-0.14-0.12-0.28-0.24-0.42-0.38c0.01-0.01,0.02-0.03,0.03-0.05c-0.24-0.33-0.36-0.72-0.36-1.16c0-0.57,0.2-1.05,0.6-1.45
						c0.4-0.4,0.88-0.6,1.45-0.6c0.33,0,0.67,0.09,1.03,0.26C238.74,125.77,239.26,125.86,239.94,125.86z"/>
					<path d="M249.17,113.55c-0.57,0-1.05-0.2-1.45-0.6c-0.4-0.4-0.6-0.88-0.6-1.45s0.2-1.05,0.6-1.45c0.4-0.4,0.88-0.6,1.45-0.6
						s1.05,0.2,1.45,0.6c0.4,0.4,0.6,0.88,0.6,1.45s-0.2,1.05-0.6,1.45C250.22,113.35,249.74,113.55,249.17,113.55z M251.22,127.91
						c0,0.57-0.2,1.05-0.6,1.45c-0.4,0.4-0.88,0.6-1.45,0.6s-1.05-0.2-1.45-0.6c-0.4-0.4-0.6-0.88-0.6-1.45v-10.25
						c0-0.57,0.2-1.05,0.6-1.45c0.4-0.4,0.88-0.6,1.45-0.6s1.05,0.2,1.45,0.6c0.4,0.4,0.6,0.88,0.6,1.45V127.91z"/>
					<path d="M263.53,129.29c-0.93,0.44-1.96,0.67-3.08,0.67c-1.98,0-3.67-0.7-5.08-2.1c-1.4-1.4-2.1-3.09-2.1-5.08
						s0.7-3.67,2.1-5.08c1.4-1.4,3.09-2.1,5.08-2.1c2.05,0,3.76,0.68,5.13,2.05s2.05,3.08,2.05,5.13v7.18c0,1.7-0.6,3.15-1.8,4.35
						c-1.2,1.2-2.65,1.8-4.35,1.8c-0.57,0-1.05-0.2-1.45-0.6c-0.4-0.4-0.6-0.88-0.6-1.45s0.2-1.05,0.6-1.45
						c0.4-0.4,0.88-0.6,1.45-0.6s1.05-0.2,1.45-0.6c0.4-0.4,0.6-0.88,0.6-1.45V129.29z M262.62,124.96c0.6-0.6,0.9-1.33,0.9-2.17
						s-0.3-1.57-0.9-2.17s-1.33-0.9-2.17-0.9s-1.57,0.3-2.17,0.9s-0.9,1.33-0.9,2.17s0.3,1.57,0.9,2.17s1.33,0.9,2.17,0.9
						S262.02,125.56,262.62,124.96z"/>
					<path d="M271.47,117.4c1.2-1.2,2.65-1.79,4.36-1.79c1.7,0,3.15,0.6,4.35,1.8c1.2,1.2,1.8,2.65,1.8,4.35v6.15
						c0,0.57-0.2,1.05-0.6,1.45c-0.4,0.4-0.88,0.6-1.45,0.6s-1.05-0.2-1.45-0.6c-0.4-0.4-0.6-0.88-0.6-1.45v-6.15
						c0-0.57-0.2-1.05-0.6-1.45c-0.4-0.4-0.88-0.6-1.45-0.6s-1.05,0.2-1.45,0.6c-0.4,0.4-0.6,0.88-0.6,1.45v6.15
						c0,0.57-0.2,1.05-0.6,1.45c-0.4,0.4-0.88,0.6-1.45,0.6s-1.05-0.2-1.45-0.6c-0.4-0.4-0.6-0.88-0.6-1.45v-6.15
						C269.68,120.05,270.28,118.6,271.47,117.4z"/>
				</g>
			</g>
		</g>
	</g>
</g>
<g id="Images_Portfolio">
	<g id="Thrive">
	</g>
	<g id="Get_Guts">
	</g>
	<g id="Elements">
	</g>
</g>
</svg>
